ISO-10303-21;
HEADER;
/* Generated by software containing ST-Developer
 * from STEP Tools, Inc. (www.steptools.com) 
 */
/* OPTION: using custom renumber hook */

FILE_DESCRIPTION(
/* description */ ('STEP AP242 Edition 2',
'CAx-IF Rec.Pracs.---Representation and Presentation of Product Manufa
cturing Information (PMI)---4.0---2014-10-13',
'CAx-IF Rec.Pracs.---3D Tessellated Geometry---0.4---2014-09-14','2;1',
'CAx-IF Rec.Pracs.---User Defined Attributes---1.5---2016-08-15'),
/* implementation_level */ '2;1');

FILE_NAME(
/* name */ 'Part Studio 2',
/* time_stamp */ '2026-06-17T04:07:27Z',
/* author */ (''),
/* organization */ (''),
/* preprocessor_version */ 'ST-DEVELOPER v20',
/* originating_system */ 'ONSHAPE BY PTC INC, 1.216',
/* authorisation */ '  ');

FILE_SCHEMA (('AP242_MANAGED_MODEL_BASED_3D_ENGINEERING_MIM_LF { 1 0 10303 442 3 1 4 }'));
ENDSEC;

DATA;
#10=SHAPE_REPRESENTATION_RELATIONSHIP('','',#908,#11);
#11=ADVANCED_BREP_SHAPE_REPRESENTATION('',(#906),#1464);
#12=ELLIPSE('',#942,0.00411900554251995,0.0035);
#13=CYLINDRICAL_SURFACE('',#929,0.0052);
#14=CYLINDRICAL_SURFACE('',#931,0.0052);
#15=CYLINDRICAL_SURFACE('',#943,0.0016);
#16=CYLINDRICAL_SURFACE('',#945,0.0035);
#17=CYLINDRICAL_SURFACE('',#950,0.00265);
#18=CYLINDRICAL_SURFACE('',#954,0.00265);
#19=CYLINDRICAL_SURFACE('',#965,0.0052);
#20=CYLINDRICAL_SURFACE('',#967,0.0052);
#21=CIRCLE('',#919,0.0052);
#22=CIRCLE('',#920,0.0052);
#23=CIRCLE('',#930,0.0052);
#24=CIRCLE('',#932,0.0052);
#25=CIRCLE('',#935,0.00265);
#26=CIRCLE('',#936,0.00265);
#27=CIRCLE('',#939,0.0016);
#28=CIRCLE('',#944,0.0016);
#29=CIRCLE('',#946,0.0035);
#30=CIRCLE('',#951,0.00265);
#31=CIRCLE('',#955,0.00265);
#32=CIRCLE('',#963,0.0052);
#33=CIRCLE('',#964,0.0052);
#34=CIRCLE('',#966,0.0052);
#35=CIRCLE('',#968,0.0052);
#36=ORIENTED_EDGE('',*,*,#270,.T.);
#37=ORIENTED_EDGE('',*,*,#271,.T.);
#38=ORIENTED_EDGE('',*,*,#272,.T.);
#39=ORIENTED_EDGE('',*,*,#273,.T.);
#40=ORIENTED_EDGE('',*,*,#274,.F.);
#41=ORIENTED_EDGE('',*,*,#275,.T.);
#42=ORIENTED_EDGE('',*,*,#276,.T.);
#43=ORIENTED_EDGE('',*,*,#277,.T.);
#44=ORIENTED_EDGE('',*,*,#278,.T.);
#45=ORIENTED_EDGE('',*,*,#279,.T.);
#46=ORIENTED_EDGE('',*,*,#280,.T.);
#47=ORIENTED_EDGE('',*,*,#281,.F.);
#48=ORIENTED_EDGE('',*,*,#282,.T.);
#49=ORIENTED_EDGE('',*,*,#283,.F.);
#50=ORIENTED_EDGE('',*,*,#284,.T.);
#51=ORIENTED_EDGE('',*,*,#285,.T.);
#52=ORIENTED_EDGE('',*,*,#286,.F.);
#53=ORIENTED_EDGE('',*,*,#287,.F.);
#54=ORIENTED_EDGE('',*,*,#288,.F.);
#55=ORIENTED_EDGE('',*,*,#289,.T.);
#56=ORIENTED_EDGE('',*,*,#290,.T.);
#57=ORIENTED_EDGE('',*,*,#291,.F.);
#58=ORIENTED_EDGE('',*,*,#292,.T.);
#59=ORIENTED_EDGE('',*,*,#293,.T.);
#60=ORIENTED_EDGE('',*,*,#294,.F.);
#61=ORIENTED_EDGE('',*,*,#295,.T.);
#62=ORIENTED_EDGE('',*,*,#296,.T.);
#63=ORIENTED_EDGE('',*,*,#297,.T.);
#64=ORIENTED_EDGE('',*,*,#282,.F.);
#65=ORIENTED_EDGE('',*,*,#298,.T.);
#66=ORIENTED_EDGE('',*,*,#299,.T.);
#67=ORIENTED_EDGE('',*,*,#278,.F.);
#68=ORIENTED_EDGE('',*,*,#300,.T.);
#69=ORIENTED_EDGE('',*,*,#301,.F.);
#70=ORIENTED_EDGE('',*,*,#302,.F.);
#71=ORIENTED_EDGE('',*,*,#303,.T.);
#72=ORIENTED_EDGE('',*,*,#304,.F.);
#73=ORIENTED_EDGE('',*,*,#305,.F.);
#74=ORIENTED_EDGE('',*,*,#286,.T.);
#75=ORIENTED_EDGE('',*,*,#306,.T.);
#76=ORIENTED_EDGE('',*,*,#307,.F.);
#77=ORIENTED_EDGE('',*,*,#308,.F.);
#78=ORIENTED_EDGE('',*,*,#309,.T.);
#79=ORIENTED_EDGE('',*,*,#310,.T.);
#80=ORIENTED_EDGE('',*,*,#311,.T.);
#81=ORIENTED_EDGE('',*,*,#312,.F.);
#82=ORIENTED_EDGE('',*,*,#313,.F.);
#83=ORIENTED_EDGE('',*,*,#314,.T.);
#84=ORIENTED_EDGE('',*,*,#307,.T.);
#85=ORIENTED_EDGE('',*,*,#315,.F.);
#86=ORIENTED_EDGE('',*,*,#316,.F.);
#87=ORIENTED_EDGE('',*,*,#294,.T.);
#88=ORIENTED_EDGE('',*,*,#317,.T.);
#89=ORIENTED_EDGE('',*,*,#309,.F.);
#90=ORIENTED_EDGE('',*,*,#318,.F.);
#91=ORIENTED_EDGE('',*,*,#284,.F.);
#92=ORIENTED_EDGE('',*,*,#319,.F.);
#93=ORIENTED_EDGE('',*,*,#316,.T.);
#94=ORIENTED_EDGE('',*,*,#320,.F.);
#95=ORIENTED_EDGE('',*,*,#295,.F.);
#96=ORIENTED_EDGE('',*,*,#318,.T.);
#97=ORIENTED_EDGE('',*,*,#308,.T.);
#98=ORIENTED_EDGE('',*,*,#314,.F.);
#99=ORIENTED_EDGE('',*,*,#319,.T.);
#100=ORIENTED_EDGE('',*,*,#283,.T.);
#101=ORIENTED_EDGE('',*,*,#297,.F.);
#102=ORIENTED_EDGE('',*,*,#321,.F.);
#103=ORIENTED_EDGE('',*,*,#296,.F.);
#104=ORIENTED_EDGE('',*,*,#322,.F.);
#105=ORIENTED_EDGE('',*,*,#323,.F.);
#106=ORIENTED_EDGE('',*,*,#324,.F.);
#107=ORIENTED_EDGE('',*,*,#325,.T.);
#108=ORIENTED_EDGE('',*,*,#326,.T.);
#109=ORIENTED_EDGE('',*,*,#324,.T.);
#110=ORIENTED_EDGE('',*,*,#327,.T.);
#111=ORIENTED_EDGE('',*,*,#328,.F.);
#112=ORIENTED_EDGE('',*,*,#329,.F.);
#113=ORIENTED_EDGE('',*,*,#328,.T.);
#114=ORIENTED_EDGE('',*,*,#330,.T.);
#115=ORIENTED_EDGE('',*,*,#331,.F.);
#116=ORIENTED_EDGE('',*,*,#332,.F.);
#117=ORIENTED_EDGE('',*,*,#333,.F.);
#118=ORIENTED_EDGE('',*,*,#326,.F.);
#119=ORIENTED_EDGE('',*,*,#334,.T.);
#120=ORIENTED_EDGE('',*,*,#331,.T.);
#121=ORIENTED_EDGE('',*,*,#285,.F.);
#122=ORIENTED_EDGE('',*,*,#320,.T.);
#123=ORIENTED_EDGE('',*,*,#315,.T.);
#124=ORIENTED_EDGE('',*,*,#306,.F.);
#125=ORIENTED_EDGE('',*,*,#325,.F.);
#126=ORIENTED_EDGE('',*,*,#329,.T.);
#127=ORIENTED_EDGE('',*,*,#332,.T.);
#128=ORIENTED_EDGE('',*,*,#334,.F.);
#129=ORIENTED_EDGE('',*,*,#335,.F.);
#130=ORIENTED_EDGE('',*,*,#336,.T.);
#131=ORIENTED_EDGE('',*,*,#274,.T.);
#132=ORIENTED_EDGE('',*,*,#337,.T.);
#133=ORIENTED_EDGE('',*,*,#338,.F.);
#134=ORIENTED_EDGE('',*,*,#339,.T.);
#135=ORIENTED_EDGE('',*,*,#340,.T.);
#136=ORIENTED_EDGE('',*,*,#341,.T.);
#137=ORIENTED_EDGE('',*,*,#342,.F.);
#138=ORIENTED_EDGE('',*,*,#343,.T.);
#139=ORIENTED_EDGE('',*,*,#335,.T.);
#140=ORIENTED_EDGE('',*,*,#344,.T.);
#141=ORIENTED_EDGE('',*,*,#345,.F.);
#142=ORIENTED_EDGE('',*,*,#346,.T.);
#143=ORIENTED_EDGE('',*,*,#338,.T.);
#144=ORIENTED_EDGE('',*,*,#347,.T.);
#145=ORIENTED_EDGE('',*,*,#348,.F.);
#146=ORIENTED_EDGE('',*,*,#322,.T.);
#147=ORIENTED_EDGE('',*,*,#349,.F.);
#148=ORIENTED_EDGE('',*,*,#321,.T.);
#149=ORIENTED_EDGE('',*,*,#350,.T.);
#150=ORIENTED_EDGE('',*,*,#351,.T.);
#151=ORIENTED_EDGE('',*,*,#340,.F.);
#152=ORIENTED_EDGE('',*,*,#352,.T.);
#153=ORIENTED_EDGE('',*,*,#353,.F.);
#154=ORIENTED_EDGE('',*,*,#300,.F.);
#155=ORIENTED_EDGE('',*,*,#287,.T.);
#156=ORIENTED_EDGE('',*,*,#305,.T.);
#157=ORIENTED_EDGE('',*,*,#354,.T.);
#158=ORIENTED_EDGE('',*,*,#355,.F.);
#159=ORIENTED_EDGE('',*,*,#313,.T.);
#160=ORIENTED_EDGE('',*,*,#356,.T.);
#161=ORIENTED_EDGE('',*,*,#276,.F.);
#162=ORIENTED_EDGE('',*,*,#357,.T.);
#163=ORIENTED_EDGE('',*,*,#342,.T.);
#164=ORIENTED_EDGE('',*,*,#358,.T.);
#165=ORIENTED_EDGE('',*,*,#350,.F.);
#166=ORIENTED_EDGE('',*,*,#359,.T.);
#167=ORIENTED_EDGE('',*,*,#345,.T.);
#168=ORIENTED_EDGE('',*,*,#360,.T.);
#169=ORIENTED_EDGE('',*,*,#361,.F.);
#170=ORIENTED_EDGE('',*,*,#362,.F.);
#171=ORIENTED_EDGE('',*,*,#327,.F.);
#172=ORIENTED_EDGE('',*,*,#323,.T.);
#173=ORIENTED_EDGE('',*,*,#333,.T.);
#174=ORIENTED_EDGE('',*,*,#330,.F.);
#175=ORIENTED_EDGE('',*,*,#363,.F.);
#176=ORIENTED_EDGE('',*,*,#279,.F.);
#177=ORIENTED_EDGE('',*,*,#299,.F.);
#178=ORIENTED_EDGE('',*,*,#364,.T.);
#179=ORIENTED_EDGE('',*,*,#365,.T.);
#180=ORIENTED_EDGE('',*,*,#365,.F.);
#181=ORIENTED_EDGE('',*,*,#366,.T.);
#182=ORIENTED_EDGE('',*,*,#280,.F.);
#183=ORIENTED_EDGE('',*,*,#367,.F.);
#184=ORIENTED_EDGE('',*,*,#368,.F.);
#185=ORIENTED_EDGE('',*,*,#298,.F.);
#186=ORIENTED_EDGE('',*,*,#281,.T.);
#187=ORIENTED_EDGE('',*,*,#366,.F.);
#188=ORIENTED_EDGE('',*,*,#364,.F.);
#189=ORIENTED_EDGE('',*,*,#369,.F.);
#190=ORIENTED_EDGE('',*,*,#363,.T.);
#191=ORIENTED_EDGE('',*,*,#367,.T.);
#192=ORIENTED_EDGE('',*,*,#370,.T.);
#193=ORIENTED_EDGE('',*,*,#368,.T.);
#194=ORIENTED_EDGE('',*,*,#370,.F.);
#195=ORIENTED_EDGE('',*,*,#369,.T.);
#196=ORIENTED_EDGE('',*,*,#312,.T.);
#197=ORIENTED_EDGE('',*,*,#371,.T.);
#198=ORIENTED_EDGE('',*,*,#372,.F.);
#199=ORIENTED_EDGE('',*,*,#356,.F.);
#200=ORIENTED_EDGE('',*,*,#373,.F.);
#201=ORIENTED_EDGE('',*,*,#292,.F.);
#202=ORIENTED_EDGE('',*,*,#353,.T.);
#203=ORIENTED_EDGE('',*,*,#372,.T.);
#204=ORIENTED_EDGE('',*,*,#374,.F.);
#205=ORIENTED_EDGE('',*,*,#361,.T.);
#206=ORIENTED_EDGE('',*,*,#375,.F.);
#207=ORIENTED_EDGE('',*,*,#310,.F.);
#208=ORIENTED_EDGE('',*,*,#355,.T.);
#209=ORIENTED_EDGE('',*,*,#376,.T.);
#210=ORIENTED_EDGE('',*,*,#304,.T.);
#211=ORIENTED_EDGE('',*,*,#377,.T.);
#212=ORIENTED_EDGE('',*,*,#376,.F.);
#213=ORIENTED_EDGE('',*,*,#354,.F.);
#214=ORIENTED_EDGE('',*,*,#378,.F.);
#215=ORIENTED_EDGE('',*,*,#362,.T.);
#216=ORIENTED_EDGE('',*,*,#378,.T.);
#217=ORIENTED_EDGE('',*,*,#374,.T.);
#218=ORIENTED_EDGE('',*,*,#357,.F.);
#219=ORIENTED_EDGE('',*,*,#275,.F.);
#220=ORIENTED_EDGE('',*,*,#336,.F.);
#221=ORIENTED_EDGE('',*,*,#343,.F.);
#222=ORIENTED_EDGE('',*,*,#358,.F.);
#223=ORIENTED_EDGE('',*,*,#344,.F.);
#224=ORIENTED_EDGE('',*,*,#341,.F.);
#225=ORIENTED_EDGE('',*,*,#351,.F.);
#226=ORIENTED_EDGE('',*,*,#359,.F.);
#227=ORIENTED_EDGE('',*,*,#352,.F.);
#228=ORIENTED_EDGE('',*,*,#339,.F.);
#229=ORIENTED_EDGE('',*,*,#346,.F.);
#230=ORIENTED_EDGE('',*,*,#360,.F.);
#231=ORIENTED_EDGE('',*,*,#347,.F.);
#232=ORIENTED_EDGE('',*,*,#337,.F.);
#233=ORIENTED_EDGE('',*,*,#277,.F.);
#234=ORIENTED_EDGE('',*,*,#379,.F.);
#235=ORIENTED_EDGE('',*,*,#301,.T.);
#236=ORIENTED_EDGE('',*,*,#317,.F.);
#237=ORIENTED_EDGE('',*,*,#293,.F.);
#238=ORIENTED_EDGE('',*,*,#373,.T.);
#239=ORIENTED_EDGE('',*,*,#371,.F.);
#240=ORIENTED_EDGE('',*,*,#311,.F.);
#241=ORIENTED_EDGE('',*,*,#375,.T.);
#242=ORIENTED_EDGE('',*,*,#377,.F.);
#243=ORIENTED_EDGE('',*,*,#303,.F.);
#244=ORIENTED_EDGE('',*,*,#380,.F.);
#245=ORIENTED_EDGE('',*,*,#302,.T.);
#246=ORIENTED_EDGE('',*,*,#381,.F.);
#247=ORIENTED_EDGE('',*,*,#380,.T.);
#248=ORIENTED_EDGE('',*,*,#382,.F.);
#249=ORIENTED_EDGE('',*,*,#379,.T.);
#250=ORIENTED_EDGE('',*,*,#382,.T.);
#251=ORIENTED_EDGE('',*,*,#381,.T.);
#252=ORIENTED_EDGE('',*,*,#349,.T.);
#253=ORIENTED_EDGE('',*,*,#348,.T.);
#254=ORIENTED_EDGE('',*,*,#383,.F.);
#255=ORIENTED_EDGE('',*,*,#289,.F.);
#256=ORIENTED_EDGE('',*,*,#384,.F.);
#257=ORIENTED_EDGE('',*,*,#273,.F.);
#258=ORIENTED_EDGE('',*,*,#384,.T.);
#259=ORIENTED_EDGE('',*,*,#288,.T.);
#260=ORIENTED_EDGE('',*,*,#385,.F.);
#261=ORIENTED_EDGE('',*,*,#270,.F.);
#262=ORIENTED_EDGE('',*,*,#383,.T.);
#263=ORIENTED_EDGE('',*,*,#272,.F.);
#264=ORIENTED_EDGE('',*,*,#386,.F.);
#265=ORIENTED_EDGE('',*,*,#290,.F.);
#266=ORIENTED_EDGE('',*,*,#385,.T.);
#267=ORIENTED_EDGE('',*,*,#291,.T.);
#268=ORIENTED_EDGE('',*,*,#386,.T.);
#269=ORIENTED_EDGE('',*,*,#271,.F.);
#270=EDGE_CURVE('',#387,#388,#467,.T.);
#271=EDGE_CURVE('',#388,#389,#468,.T.);
#272=EDGE_CURVE('',#389,#390,#469,.T.);
#273=EDGE_CURVE('',#390,#387,#470,.T.);
#274=EDGE_CURVE('',#391,#392,#471,.T.);
#275=EDGE_CURVE('',#391,#393,#472,.T.);
#276=EDGE_CURVE('',#393,#394,#473,.T.);
#277=EDGE_CURVE('',#394,#392,#474,.T.);
#278=EDGE_CURVE('',#395,#396,#475,.T.);
#279=EDGE_CURVE('',#396,#397,#476,.T.);
#280=EDGE_CURVE('',#397,#398,#477,.T.);
#281=EDGE_CURVE('',#399,#398,#478,.T.);
#282=EDGE_CURVE('',#399,#400,#479,.T.);
#283=EDGE_CURVE('',#401,#400,#480,.T.);
#284=EDGE_CURVE('',#401,#402,#481,.T.);
#285=EDGE_CURVE('',#402,#403,#482,.T.);
#286=EDGE_CURVE('',#404,#403,#483,.T.);
#287=EDGE_CURVE('',#395,#404,#484,.T.);
#288=EDGE_CURVE('',#405,#406,#485,.T.);
#289=EDGE_CURVE('',#405,#407,#486,.T.);
#290=EDGE_CURVE('',#407,#408,#487,.T.);
#291=EDGE_CURVE('',#406,#408,#488,.T.);
#292=EDGE_CURVE('',#409,#410,#489,.T.);
#293=EDGE_CURVE('',#410,#411,#490,.T.);
#294=EDGE_CURVE('',#412,#411,#491,.T.);
#295=EDGE_CURVE('',#412,#413,#492,.T.);
#296=EDGE_CURVE('',#413,#414,#493,.T.);
#297=EDGE_CURVE('',#414,#400,#494,.T.);
#298=EDGE_CURVE('',#399,#415,#495,.T.);
#299=EDGE_CURVE('',#415,#396,#496,.T.);
#300=EDGE_CURVE('',#395,#409,#497,.T.);
#301=EDGE_CURVE('',#416,#417,#498,.T.);
#302=EDGE_CURVE('',#418,#416,#499,.T.);
#303=EDGE_CURVE('',#418,#419,#500,.T.);
#304=EDGE_CURVE('',#420,#419,#501,.T.);
#305=EDGE_CURVE('',#404,#420,#502,.T.);
#306=EDGE_CURVE('',#403,#421,#503,.T.);
#307=EDGE_CURVE('',#422,#421,#504,.T.);
#308=EDGE_CURVE('',#423,#422,#505,.T.);
#309=EDGE_CURVE('',#423,#417,#506,.T.);
#310=EDGE_CURVE('',#424,#425,#507,.T.);
#311=EDGE_CURVE('',#425,#426,#508,.T.);
#312=EDGE_CURVE('',#427,#426,#509,.T.);
#313=EDGE_CURVE('',#424,#427,#510,.T.);
#314=EDGE_CURVE('',#428,#422,#511,.T.);
#315=EDGE_CURVE('',#429,#421,#512,.T.);
#316=EDGE_CURVE('',#428,#429,#513,.T.);
#317=EDGE_CURVE('',#411,#417,#514,.T.);
#318=EDGE_CURVE('',#412,#423,#515,.T.);
#319=EDGE_CURVE('',#428,#401,#516,.T.);
#320=EDGE_CURVE('',#402,#429,#517,.T.);
#321=EDGE_CURVE('',#414,#414,#21,.T.);
#322=EDGE_CURVE('',#413,#413,#22,.T.);
#323=EDGE_CURVE('',#430,#431,#518,.T.);
#324=EDGE_CURVE('',#432,#430,#519,.T.);
#325=EDGE_CURVE('',#432,#433,#520,.T.);
#326=EDGE_CURVE('',#433,#431,#521,.T.);
#327=EDGE_CURVE('',#430,#434,#522,.T.);
#328=EDGE_CURVE('',#435,#434,#523,.T.);
#329=EDGE_CURVE('',#432,#435,#524,.T.);
#330=EDGE_CURVE('',#434,#436,#525,.T.);
#331=EDGE_CURVE('',#437,#436,#526,.T.);
#332=EDGE_CURVE('',#435,#437,#527,.T.);
#333=EDGE_CURVE('',#431,#436,#528,.T.);
#334=EDGE_CURVE('',#433,#437,#529,.T.);
#335=EDGE_CURVE('',#438,#439,#530,.T.);
#336=EDGE_CURVE('',#438,#391,#531,.T.);
#337=EDGE_CURVE('',#392,#440,#532,.T.);
#338=EDGE_CURVE('',#441,#440,#533,.T.);
#339=EDGE_CURVE('',#441,#442,#534,.T.);
#340=EDGE_CURVE('',#442,#443,#535,.T.);
#341=EDGE_CURVE('',#443,#439,#536,.T.);
#342=EDGE_CURVE('',#444,#445,#537,.T.);
#343=EDGE_CURVE('',#444,#438,#538,.T.);
#344=EDGE_CURVE('',#439,#445,#539,.T.);
#345=EDGE_CURVE('',#446,#447,#540,.T.);
#346=EDGE_CURVE('',#446,#441,#541,.T.);
#347=EDGE_CURVE('',#440,#447,#542,.T.);
#348=EDGE_CURVE('',#448,#448,#23,.T.);
#349=EDGE_CURVE('',#449,#449,#24,.T.);
#350=EDGE_CURVE('',#450,#451,#543,.T.);
#351=EDGE_CURVE('',#451,#443,#544,.T.);
#352=EDGE_CURVE('',#442,#450,#545,.T.);
#353=EDGE_CURVE('',#409,#452,#546,.T.);
#354=EDGE_CURVE('',#420,#453,#547,.T.);
#355=EDGE_CURVE('',#424,#453,#548,.T.);
#356=EDGE_CURVE('',#427,#452,#549,.T.);
#357=EDGE_CURVE('',#393,#444,#550,.T.);
#358=EDGE_CURVE('',#445,#451,#551,.T.);
#359=EDGE_CURVE('',#450,#446,#552,.T.);
#360=EDGE_CURVE('',#447,#394,#553,.T.);
#361=EDGE_CURVE('',#454,#454,#25,.T.);
#362=EDGE_CURVE('',#455,#455,#26,.T.);
#363=EDGE_CURVE('',#456,#456,#27,.T.);
#364=EDGE_CURVE('',#415,#457,#554,.T.);
#365=EDGE_CURVE('',#457,#397,#555,.T.);
#366=EDGE_CURVE('',#457,#398,#556,.T.);
#367=EDGE_CURVE('',#458,#459,#12,.T.);
#368=EDGE_CURVE('',#459,#458,#557,.T.);
#369=EDGE_CURVE('',#460,#460,#28,.T.);
#370=EDGE_CURVE('',#459,#458,#29,.T.);
#371=EDGE_CURVE('',#426,#461,#558,.T.);
#372=EDGE_CURVE('',#452,#461,#559,.T.);
#373=EDGE_CURVE('',#410,#461,#560,.T.);
#374=EDGE_CURVE('',#462,#462,#30,.T.);
#375=EDGE_CURVE('',#425,#463,#561,.T.);
#376=EDGE_CURVE('',#453,#463,#562,.T.);
#377=EDGE_CURVE('',#419,#463,#563,.T.);
#378=EDGE_CURVE('',#464,#464,#31,.T.);
#379=EDGE_CURVE('',#416,#416,#32,.T.);
#380=EDGE_CURVE('',#418,#418,#33,.T.);
#381=EDGE_CURVE('',#465,#465,#34,.T.);
#382=EDGE_CURVE('',#466,#466,#35,.T.);
#383=EDGE_CURVE('',#407,#390,#564,.T.);
#384=EDGE_CURVE('',#387,#405,#565,.T.);
#385=EDGE_CURVE('',#388,#406,#566,.F.);
#386=EDGE_CURVE('',#408,#389,#567,.T.);
#387=VERTEX_POINT('',#1217);
#388=VERTEX_POINT('',#1218);
#389=VERTEX_POINT('',#1220);
#390=VERTEX_POINT('',#1222);
#391=VERTEX_POINT('',#1225);
#392=VERTEX_POINT('',#1226);
#393=VERTEX_POINT('',#1228);
#394=VERTEX_POINT('',#1230);
#395=VERTEX_POINT('',#1234);
#396=VERTEX_POINT('',#1235);
#397=VERTEX_POINT('',#1237);
#398=VERTEX_POINT('',#1239);
#399=VERTEX_POINT('',#1241);
#400=VERTEX_POINT('',#1243);
#401=VERTEX_POINT('',#1245);
#402=VERTEX_POINT('',#1247);
#403=VERTEX_POINT('',#1249);
#404=VERTEX_POINT('',#1251);
#405=VERTEX_POINT('',#1254);
#406=VERTEX_POINT('',#1255);
#407=VERTEX_POINT('',#1257);
#408=VERTEX_POINT('',#1259);
#409=VERTEX_POINT('',#1263);
#410=VERTEX_POINT('',#1264);
#411=VERTEX_POINT('',#1266);
#412=VERTEX_POINT('',#1268);
#413=VERTEX_POINT('',#1270);
#414=VERTEX_POINT('',#1272);
#415=VERTEX_POINT('',#1275);
#416=VERTEX_POINT('',#1280);
#417=VERTEX_POINT('',#1281);
#418=VERTEX_POINT('',#1283);
#419=VERTEX_POINT('',#1285);
#420=VERTEX_POINT('',#1287);
#421=VERTEX_POINT('',#1290);
#422=VERTEX_POINT('',#1292);
#423=VERTEX_POINT('',#1294);
#424=VERTEX_POINT('',#1298);
#425=VERTEX_POINT('',#1299);
#426=VERTEX_POINT('',#1301);
#427=VERTEX_POINT('',#1303);
#428=VERTEX_POINT('',#1307);
#429=VERTEX_POINT('',#1309);
#430=VERTEX_POINT('',#1322);
#431=VERTEX_POINT('',#1323);
#432=VERTEX_POINT('',#1325);
#433=VERTEX_POINT('',#1327);
#434=VERTEX_POINT('',#1331);
#435=VERTEX_POINT('',#1333);
#436=VERTEX_POINT('',#1337);
#437=VERTEX_POINT('',#1339);
#438=VERTEX_POINT('',#1347);
#439=VERTEX_POINT('',#1348);
#440=VERTEX_POINT('',#1351);
#441=VERTEX_POINT('',#1353);
#442=VERTEX_POINT('',#1355);
#443=VERTEX_POINT('',#1357);
#444=VERTEX_POINT('',#1361);
#445=VERTEX_POINT('',#1362);
#446=VERTEX_POINT('',#1367);
#447=VERTEX_POINT('',#1368);
#448=VERTEX_POINT('',#1373);
#449=VERTEX_POINT('',#1376);
#450=VERTEX_POINT('',#1379);
#451=VERTEX_POINT('',#1380);
#452=VERTEX_POINT('',#1385);
#453=VERTEX_POINT('',#1387);
#454=VERTEX_POINT('',#1395);
#455=VERTEX_POINT('',#1397);
#456=VERTEX_POINT('',#1401);
#457=VERTEX_POINT('',#1403);
#458=VERTEX_POINT('',#1409);
#459=VERTEX_POINT('',#1410);
#460=VERTEX_POINT('',#1414);
#461=VERTEX_POINT('',#1420);
#462=VERTEX_POINT('',#1426);
#463=VERTEX_POINT('',#1429);
#464=VERTEX_POINT('',#1435);
#465=VERTEX_POINT('',#1447);
#466=VERTEX_POINT('',#1450);
#467=LINE('',#1216,#568);
#468=LINE('',#1219,#569);
#469=LINE('',#1221,#570);
#470=LINE('',#1223,#571);
#471=LINE('',#1224,#572);
#472=LINE('',#1227,#573);
#473=LINE('',#1229,#574);
#474=LINE('',#1231,#575);
#475=LINE('',#1233,#576);
#476=LINE('',#1236,#577);
#477=LINE('',#1238,#578);
#478=LINE('',#1240,#579);
#479=LINE('',#1242,#580);
#480=LINE('',#1244,#581);
#481=LINE('',#1246,#582);
#482=LINE('',#1248,#583);
#483=LINE('',#1250,#584);
#484=LINE('',#1252,#585);
#485=LINE('',#1253,#586);
#486=LINE('',#1256,#587);
#487=LINE('',#1258,#588);
#488=LINE('',#1260,#589);
#489=LINE('',#1262,#590);
#490=LINE('',#1265,#591);
#491=LINE('',#1267,#592);
#492=LINE('',#1269,#593);
#493=LINE('',#1271,#594);
#494=LINE('',#1273,#595);
#495=LINE('',#1274,#596);
#496=LINE('',#1276,#597);
#497=LINE('',#1277,#598);
#498=LINE('',#1279,#599);
#499=LINE('',#1282,#600);
#500=LINE('',#1284,#601);
#501=LINE('',#1286,#602);
#502=LINE('',#1288,#603);
#503=LINE('',#1289,#604);
#504=LINE('',#1291,#605);
#505=LINE('',#1293,#606);
#506=LINE('',#1295,#607);
#507=LINE('',#1297,#608);
#508=LINE('',#1300,#609);
#509=LINE('',#1302,#610);
#510=LINE('',#1304,#611);
#511=LINE('',#1306,#612);
#512=LINE('',#1308,#613);
#513=LINE('',#1310,#614);
#514=LINE('',#1312,#615);
#515=LINE('',#1313,#616);
#516=LINE('',#1315,#617);
#517=LINE('',#1316,#618);
#518=LINE('',#1321,#619);
#519=LINE('',#1324,#620);
#520=LINE('',#1326,#621);
#521=LINE('',#1328,#622);
#522=LINE('',#1330,#623);
#523=LINE('',#1332,#624);
#524=LINE('',#1334,#625);
#525=LINE('',#1336,#626);
#526=LINE('',#1338,#627);
#527=LINE('',#1340,#628);
#528=LINE('',#1342,#629);
#529=LINE('',#1343,#630);
#530=LINE('',#1346,#631);
#531=LINE('',#1349,#632);
#532=LINE('',#1350,#633);
#533=LINE('',#1352,#634);
#534=LINE('',#1354,#635);
#535=LINE('',#1356,#636);
#536=LINE('',#1358,#637);
#537=LINE('',#1360,#638);
#538=LINE('',#1363,#639);
#539=LINE('',#1364,#640);
#540=LINE('',#1366,#641);
#541=LINE('',#1369,#642);
#542=LINE('',#1370,#643);
#543=LINE('',#1378,#644);
#544=LINE('',#1381,#645);
#545=LINE('',#1382,#646);
#546=LINE('',#1384,#647);
#547=LINE('',#1386,#648);
#548=LINE('',#1388,#649);
#549=LINE('',#1389,#650);
#550=LINE('',#1390,#651);
#551=LINE('',#1391,#652);
#552=LINE('',#1392,#653);
#553=LINE('',#1393,#654);
#554=LINE('',#1402,#655);
#555=LINE('',#1404,#656);
#556=LINE('',#1406,#657);
#557=LINE('',#1411,#658);
#558=LINE('',#1419,#659);
#559=LINE('',#1421,#660);
#560=LINE('',#1423,#661);
#561=LINE('',#1428,#662);
#562=LINE('',#1430,#663);
#563=LINE('',#1432,#664);
#564=LINE('',#1456,#665);
#565=LINE('',#1457,#666);
#566=LINE('',#1459,#667);
#567=LINE('',#1461,#668);
#568=VECTOR('',#981,1.);
#569=VECTOR('',#982,1.);
#570=VECTOR('',#983,1.);
#571=VECTOR('',#984,1.);
#572=VECTOR('',#985,1.);
#573=VECTOR('',#986,1.);
#574=VECTOR('',#987,1.);
#575=VECTOR('',#988,1.);
#576=VECTOR('',#991,1.);
#577=VECTOR('',#992,1.);
#578=VECTOR('',#993,1.);
#579=VECTOR('',#994,1.);
#580=VECTOR('',#995,1.);
#581=VECTOR('',#996,1.);
#582=VECTOR('',#997,1.);
#583=VECTOR('',#998,1.);
#584=VECTOR('',#999,1.);
#585=VECTOR('',#1000,1.);
#586=VECTOR('',#1001,1.);
#587=VECTOR('',#1002,1.);
#588=VECTOR('',#1003,1.);
#589=VECTOR('',#1004,1.);
#590=VECTOR('',#1007,1.);
#591=VECTOR('',#1008,1.);
#592=VECTOR('',#1009,1.);
#593=VECTOR('',#1010,1.);
#594=VECTOR('',#1011,1.);
#595=VECTOR('',#1012,1.);
#596=VECTOR('',#1013,1.);
#597=VECTOR('',#1014,1.);
#598=VECTOR('',#1015,1.);
#599=VECTOR('',#1018,1.);
#600=VECTOR('',#1019,1.);
#601=VECTOR('',#1020,1.);
#602=VECTOR('',#1021,1.);
#603=VECTOR('',#1022,1.);
#604=VECTOR('',#1023,1.);
#605=VECTOR('',#1024,1.);
#606=VECTOR('',#1025,1.);
#607=VECTOR('',#1026,1.);
#608=VECTOR('',#1029,1.);
#609=VECTOR('',#1030,1.);
#610=VECTOR('',#1031,1.);
#611=VECTOR('',#1032,1.);
#612=VECTOR('',#1035,1.);
#613=VECTOR('',#1036,1.);
#614=VECTOR('',#1037,1.);
#615=VECTOR('',#1040,1.);
#616=VECTOR('',#1041,1.);
#617=VECTOR('',#1044,1.);
#618=VECTOR('',#1045,1.);
#619=VECTOR('',#1054,1.);
#620=VECTOR('',#1055,1.);
#621=VECTOR('',#1056,1.);
#622=VECTOR('',#1057,1.);
#623=VECTOR('',#1060,1.);
#624=VECTOR('',#1061,1.);
#625=VECTOR('',#1062,1.);
#626=VECTOR('',#1065,1.);
#627=VECTOR('',#1066,1.);
#628=VECTOR('',#1067,1.);
#629=VECTOR('',#1070,1.);
#630=VECTOR('',#1071,1.);
#631=VECTOR('',#1076,1.);
#632=VECTOR('',#1077,1.);
#633=VECTOR('',#1078,1.);
#634=VECTOR('',#1079,1.);
#635=VECTOR('',#1080,1.);
#636=VECTOR('',#1081,1.);
#637=VECTOR('',#1082,1.);
#638=VECTOR('',#1085,1.);
#639=VECTOR('',#1086,1.);
#640=VECTOR('',#1087,1.);
#641=VECTOR('',#1090,1.);
#642=VECTOR('',#1091,1.);
#643=VECTOR('',#1092,1.);
#644=VECTOR('',#1103,1.);
#645=VECTOR('',#1104,1.);
#646=VECTOR('',#1105,1.);
#647=VECTOR('',#1108,1.);
#648=VECTOR('',#1109,1.);
#649=VECTOR('',#1110,1.);
#650=VECTOR('',#1111,1.);
#651=VECTOR('',#1112,1.);
#652=VECTOR('',#1113,1.);
#653=VECTOR('',#1114,1.);
#654=VECTOR('',#1115,1.);
#655=VECTOR('',#1126,1.);
#656=VECTOR('',#1127,1.);
#657=VECTOR('',#1130,1.);
#658=VECTOR('',#1135,1.);
#659=VECTOR('',#1148,1.);
#660=VECTOR('',#1149,1.);
#661=VECTOR('',#1152,1.);
#662=VECTOR('',#1159,1.);
#663=VECTOR('',#1160,1.);
#664=VECTOR('',#1163,1.);
#665=VECTOR('',#1204,1.);
#666=VECTOR('',#1205,1.);
#667=VECTOR('',#1208,1.);
#668=VECTOR('',#1211,1.);
#669=EDGE_LOOP('',(#36,#37,#38,#39));
#670=EDGE_LOOP('',(#40,#41,#42,#43));
#671=EDGE_LOOP('',(#44,#45,#46,#47,#48,#49,#50,#51,#52,#53));
#672=EDGE_LOOP('',(#54,#55,#56,#57));
#673=EDGE_LOOP('',(#58,#59,#60,#61,#62,#63,#64,#65,#66,#67,#68));
#674=EDGE_LOOP('',(#69,#70,#71,#72,#73,#74,#75,#76,#77,#78));
#675=EDGE_LOOP('',(#79,#80,#81,#82));
#676=EDGE_LOOP('',(#83,#84,#85,#86));
#677=EDGE_LOOP('',(#87,#88,#89,#90));
#678=EDGE_LOOP('',(#91,#92,#93,#94));
#679=EDGE_LOOP('',(#95,#96,#97,#98,#99,#100,#101,#102,#103,#104));
#680=EDGE_LOOP('',(#105,#106,#107,#108));
#681=EDGE_LOOP('',(#109,#110,#111,#112));
#682=EDGE_LOOP('',(#113,#114,#115,#116));
#683=EDGE_LOOP('',(#117,#118,#119,#120));
#684=EDGE_LOOP('',(#121,#122,#123,#124));
#685=EDGE_LOOP('',(#125,#126,#127,#128));
#686=EDGE_LOOP('',(#129,#130,#131,#132,#133,#134,#135,#136));
#687=EDGE_LOOP('',(#137,#138,#139,#140));
#688=EDGE_LOOP('',(#141,#142,#143,#144));
#689=EDGE_LOOP('',(#145));
#690=EDGE_LOOP('',(#146));
#691=EDGE_LOOP('',(#147));
#692=EDGE_LOOP('',(#148));
#693=EDGE_LOOP('',(#149,#150,#151,#152));
#694=EDGE_LOOP('',(#153,#154,#155,#156,#157,#158,#159,#160));
#695=EDGE_LOOP('',(#161,#162,#163,#164,#165,#166,#167,#168));
#696=EDGE_LOOP('',(#169));
#697=EDGE_LOOP('',(#170));
#698=EDGE_LOOP('',(#171,#172,#173,#174));
#699=EDGE_LOOP('',(#175));
#700=EDGE_LOOP('',(#176,#177,#178,#179));
#701=EDGE_LOOP('',(#180,#181,#182));
#702=EDGE_LOOP('',(#183,#184));
#703=EDGE_LOOP('',(#185,#186,#187,#188));
#704=EDGE_LOOP('',(#189));
#705=EDGE_LOOP('',(#190));
#706=EDGE_LOOP('',(#191,#192));
#707=EDGE_LOOP('',(#193,#194));
#708=EDGE_LOOP('',(#195));
#709=EDGE_LOOP('',(#196,#197,#198,#199));
#710=EDGE_LOOP('',(#200,#201,#202,#203));
#711=EDGE_LOOP('',(#204));
#712=EDGE_LOOP('',(#205));
#713=EDGE_LOOP('',(#206,#207,#208,#209));
#714=EDGE_LOOP('',(#210,#211,#212,#213));
#715=EDGE_LOOP('',(#214));
#716=EDGE_LOOP('',(#215));
#717=EDGE_LOOP('',(#216));
#718=EDGE_LOOP('',(#217));
#719=EDGE_LOOP('',(#218,#219,#220,#221));
#720=EDGE_LOOP('',(#222,#223,#224,#225));
#721=EDGE_LOOP('',(#226,#227,#228,#229));
#722=EDGE_LOOP('',(#230,#231,#232,#233));
#723=EDGE_LOOP('',(#234,#235,#236,#237,#238,#239,#240,#241,#242,#243,#244,
#245));
#724=EDGE_LOOP('',(#246));
#725=EDGE_LOOP('',(#247));
#726=EDGE_LOOP('',(#248));
#727=EDGE_LOOP('',(#249));
#728=EDGE_LOOP('',(#250));
#729=EDGE_LOOP('',(#251));
#730=EDGE_LOOP('',(#252));
#731=EDGE_LOOP('',(#253));
#732=EDGE_LOOP('',(#254,#255,#256,#257));
#733=EDGE_LOOP('',(#258,#259,#260,#261));
#734=EDGE_LOOP('',(#262,#263,#264,#265));
#735=EDGE_LOOP('',(#266,#267,#268,#269));
#736=FACE_BOUND('',#669,.T.);
#737=FACE_BOUND('',#670,.T.);
#738=FACE_BOUND('',#671,.T.);
#739=FACE_BOUND('',#672,.T.);
#740=FACE_BOUND('',#673,.T.);
#741=FACE_BOUND('',#674,.T.);
#742=FACE_BOUND('',#675,.T.);
#743=FACE_BOUND('',#676,.T.);
#744=FACE_BOUND('',#677,.T.);
#745=FACE_BOUND('',#678,.T.);
#746=FACE_BOUND('',#679,.T.);
#747=FACE_BOUND('',#680,.T.);
#748=FACE_BOUND('',#681,.T.);
#749=FACE_BOUND('',#682,.T.);
#750=FACE_BOUND('',#683,.T.);
#751=FACE_BOUND('',#684,.T.);
#752=FACE_BOUND('',#685,.T.);
#753=FACE_BOUND('',#686,.T.);
#754=FACE_BOUND('',#687,.T.);
#755=FACE_BOUND('',#688,.T.);
#756=FACE_BOUND('',#689,.T.);
#757=FACE_BOUND('',#690,.T.);
#758=FACE_BOUND('',#691,.T.);
#759=FACE_BOUND('',#692,.T.);
#760=FACE_BOUND('',#693,.T.);
#761=FACE_BOUND('',#694,.T.);
#762=FACE_BOUND('',#695,.T.);
#763=FACE_BOUND('',#696,.T.);
#764=FACE_BOUND('',#697,.T.);
#765=FACE_BOUND('',#698,.T.);
#766=FACE_BOUND('',#699,.T.);
#767=FACE_BOUND('',#700,.T.);
#768=FACE_BOUND('',#701,.T.);
#769=FACE_BOUND('',#702,.T.);
#770=FACE_BOUND('',#703,.T.);
#771=FACE_BOUND('',#704,.T.);
#772=FACE_BOUND('',#705,.T.);
#773=FACE_BOUND('',#706,.T.);
#774=FACE_BOUND('',#707,.T.);
#775=FACE_BOUND('',#708,.T.);
#776=FACE_BOUND('',#709,.T.);
#777=FACE_BOUND('',#710,.T.);
#778=FACE_BOUND('',#711,.T.);
#779=FACE_BOUND('',#712,.T.);
#780=FACE_BOUND('',#713,.T.);
#781=FACE_BOUND('',#714,.T.);
#782=FACE_BOUND('',#715,.T.);
#783=FACE_BOUND('',#716,.T.);
#784=FACE_BOUND('',#717,.T.);
#785=FACE_BOUND('',#718,.T.);
#786=FACE_BOUND('',#719,.T.);
#787=FACE_BOUND('',#720,.T.);
#788=FACE_BOUND('',#721,.T.);
#789=FACE_BOUND('',#722,.T.);
#790=FACE_BOUND('',#723,.T.);
#791=FACE_BOUND('',#724,.T.);
#792=FACE_BOUND('',#725,.T.);
#793=FACE_BOUND('',#726,.T.);
#794=FACE_BOUND('',#727,.T.);
#795=FACE_BOUND('',#728,.T.);
#796=FACE_BOUND('',#729,.T.);
#797=FACE_BOUND('',#730,.T.);
#798=FACE_BOUND('',#731,.T.);
#799=FACE_BOUND('',#732,.T.);
#800=FACE_BOUND('',#733,.T.);
#801=FACE_BOUND('',#734,.T.);
#802=FACE_BOUND('',#735,.T.);
#803=PLANE('',#910);
#804=PLANE('',#911);
#805=PLANE('',#912);
#806=PLANE('',#913);
#807=PLANE('',#914);
#808=PLANE('',#915);
#809=PLANE('',#916);
#810=PLANE('',#917);
#811=PLANE('',#918);
#812=PLANE('',#921);
#813=PLANE('',#922);
#814=PLANE('',#923);
#815=PLANE('',#924);
#816=PLANE('',#925);
#817=PLANE('',#926);
#818=PLANE('',#927);
#819=PLANE('',#928);
#820=PLANE('',#933);
#821=PLANE('',#934);
#822=PLANE('',#937);
#823=PLANE('',#938);
#824=PLANE('',#940);
#825=PLANE('',#941);
#826=PLANE('',#947);
#827=PLANE('',#948);
#828=PLANE('',#949);
#829=PLANE('',#952);
#830=PLANE('',#953);
#831=PLANE('',#956);
#832=PLANE('',#957);
#833=PLANE('',#958);
#834=PLANE('',#959);
#835=PLANE('',#960);
#836=PLANE('',#961);
#837=PLANE('',#962);
#838=PLANE('',#969);
#839=PLANE('',#970);
#840=PLANE('',#971);
#841=PLANE('',#972);
#842=PLANE('',#973);
#843=PLANE('',#974);
#844=PLANE('',#975);
#845=PLANE('',#976);
#846=ADVANCED_FACE('',(#736,#737),#803,.T.);
#847=ADVANCED_FACE('',(#738,#739),#804,.F.);
#848=ADVANCED_FACE('',(#740),#805,.T.);
#849=ADVANCED_FACE('',(#741),#806,.F.);
#850=ADVANCED_FACE('',(#742),#807,.F.);
#851=ADVANCED_FACE('',(#743),#808,.T.);
#852=ADVANCED_FACE('',(#744),#809,.F.);
#853=ADVANCED_FACE('',(#745),#810,.F.);
#854=ADVANCED_FACE('',(#746),#811,.T.);
#855=ADVANCED_FACE('',(#747),#812,.T.);
#856=ADVANCED_FACE('',(#748),#813,.F.);
#857=ADVANCED_FACE('',(#749),#814,.F.);
#858=ADVANCED_FACE('',(#750),#815,.T.);
#859=ADVANCED_FACE('',(#751,#752),#816,.T.);
#860=ADVANCED_FACE('',(#753),#817,.F.);
#861=ADVANCED_FACE('',(#754),#818,.F.);
#862=ADVANCED_FACE('',(#755),#819,.F.);
#863=ADVANCED_FACE('',(#756,#757),#13,.F.);
#864=ADVANCED_FACE('',(#758,#759),#14,.F.);
#865=ADVANCED_FACE('',(#760),#820,.T.);
#866=ADVANCED_FACE('',(#761,#762,#763,#764),#821,.T.);
#867=ADVANCED_FACE('',(#765),#822,.T.);
#868=ADVANCED_FACE('',(#766,#767),#823,.T.);
#869=ADVANCED_FACE('',(#768),#824,.T.);
#870=ADVANCED_FACE('',(#769,#770),#825,.T.);
#871=ADVANCED_FACE('',(#771,#772),#15,.F.);
#872=ADVANCED_FACE('',(#773),#16,.F.);
#873=ADVANCED_FACE('',(#774,#775),#826,.F.);
#874=ADVANCED_FACE('',(#776),#827,.F.);
#875=ADVANCED_FACE('',(#777),#828,.T.);
#876=ADVANCED_FACE('',(#778,#779),#17,.F.);
#877=ADVANCED_FACE('',(#780),#829,.T.);
#878=ADVANCED_FACE('',(#781),#830,.F.);
#879=ADVANCED_FACE('',(#782,#783),#18,.F.);
#880=ADVANCED_FACE('',(#784),#831,.T.);
#881=ADVANCED_FACE('',(#785),#832,.T.);
#882=ADVANCED_FACE('',(#786),#833,.T.);
#883=ADVANCED_FACE('',(#787),#834,.T.);
#884=ADVANCED_FACE('',(#788),#835,.T.);
#885=ADVANCED_FACE('',(#789),#836,.T.);
#886=ADVANCED_FACE('',(#790),#837,.T.);
#887=ADVANCED_FACE('',(#791,#792),#19,.F.);
#888=ADVANCED_FACE('',(#793,#794),#20,.F.);
#889=ADVANCED_FACE('',(#795),#838,.T.);
#890=ADVANCED_FACE('',(#796),#839,.T.);
#891=ADVANCED_FACE('',(#797),#840,.T.);
#892=ADVANCED_FACE('',(#798),#841,.T.);
#893=ADVANCED_FACE('',(#799),#842,.T.);
#894=ADVANCED_FACE('',(#800),#843,.F.);
#895=ADVANCED_FACE('',(#801),#844,.T.);
#896=ADVANCED_FACE('',(#802),#845,.F.);
#897=CLOSED_SHELL('',(#846,#847,#848,#849,#850,#851,#852,#853,#854,#855,
#856,#857,#858,#859,#860,#861,#862,#863,#864,#865,#866,#867,#868,#869,#870,
#871,#872,#873,#874,#875,#876,#877,#878,#879,#880,#881,#882,#883,#884,#885,
#886,#887,#888,#889,#890,#891,#892,#893,#894,#895,#896));
#898=STYLED_ITEM('',(#899),#906);
#899=PRESENTATION_STYLE_ASSIGNMENT((#900));
#900=SURFACE_STYLE_USAGE(.BOTH.,#901);
#901=SURFACE_SIDE_STYLE('',(#902));
#902=SURFACE_STYLE_FILL_AREA(#903);
#903=FILL_AREA_STYLE('',(#904));
#904=FILL_AREA_STYLE_COLOUR('',#905);
#905=COLOUR_RGB('',0.615686274509804,0.811764705882353,0.929411764705882);
#906=MANIFOLD_SOLID_BREP('Part 1',#897);
#907=SHAPE_DEFINITION_REPRESENTATION(#1469,#908);
#908=SHAPE_REPRESENTATION('Part 1',(#909),#1464);
#909=AXIS2_PLACEMENT_3D('',#1214,#977,#978);
#910=AXIS2_PLACEMENT_3D('',#1215,#979,#980);
#911=AXIS2_PLACEMENT_3D('',#1232,#989,#990);
#912=AXIS2_PLACEMENT_3D('',#1261,#1005,#1006);
#913=AXIS2_PLACEMENT_3D('',#1278,#1016,#1017);
#914=AXIS2_PLACEMENT_3D('',#1296,#1027,#1028);
#915=AXIS2_PLACEMENT_3D('',#1305,#1033,#1034);
#916=AXIS2_PLACEMENT_3D('',#1311,#1038,#1039);
#917=AXIS2_PLACEMENT_3D('',#1314,#1042,#1043);
#918=AXIS2_PLACEMENT_3D('',#1317,#1046,#1047);
#919=AXIS2_PLACEMENT_3D('',#1318,#1048,#1049);
#920=AXIS2_PLACEMENT_3D('',#1319,#1050,#1051);
#921=AXIS2_PLACEMENT_3D('',#1320,#1052,#1053);
#922=AXIS2_PLACEMENT_3D('',#1329,#1058,#1059);
#923=AXIS2_PLACEMENT_3D('',#1335,#1063,#1064);
#924=AXIS2_PLACEMENT_3D('',#1341,#1068,#1069);
#925=AXIS2_PLACEMENT_3D('',#1344,#1072,#1073);
#926=AXIS2_PLACEMENT_3D('',#1345,#1074,#1075);
#927=AXIS2_PLACEMENT_3D('',#1359,#1083,#1084);
#928=AXIS2_PLACEMENT_3D('',#1365,#1088,#1089);
#929=AXIS2_PLACEMENT_3D('',#1371,#1093,#1094);
#930=AXIS2_PLACEMENT_3D('',#1372,#1095,#1096);
#931=AXIS2_PLACEMENT_3D('',#1374,#1097,#1098);
#932=AXIS2_PLACEMENT_3D('',#1375,#1099,#1100);
#933=AXIS2_PLACEMENT_3D('',#1377,#1101,#1102);
#934=AXIS2_PLACEMENT_3D('',#1383,#1106,#1107);
#935=AXIS2_PLACEMENT_3D('',#1394,#1116,#1117);
#936=AXIS2_PLACEMENT_3D('',#1396,#1118,#1119);
#937=AXIS2_PLACEMENT_3D('',#1398,#1120,#1121);
#938=AXIS2_PLACEMENT_3D('',#1399,#1122,#1123);
#939=AXIS2_PLACEMENT_3D('',#1400,#1124,#1125);
#940=AXIS2_PLACEMENT_3D('',#1405,#1128,#1129);
#941=AXIS2_PLACEMENT_3D('',#1407,#1131,#1132);
#942=AXIS2_PLACEMENT_3D('',#1408,#1133,#1134);
#943=AXIS2_PLACEMENT_3D('',#1412,#1136,#1137);
#944=AXIS2_PLACEMENT_3D('',#1413,#1138,#1139);
#945=AXIS2_PLACEMENT_3D('',#1415,#1140,#1141);
#946=AXIS2_PLACEMENT_3D('',#1416,#1142,#1143);
#947=AXIS2_PLACEMENT_3D('',#1417,#1144,#1145);
#948=AXIS2_PLACEMENT_3D('',#1418,#1146,#1147);
#949=AXIS2_PLACEMENT_3D('',#1422,#1150,#1151);
#950=AXIS2_PLACEMENT_3D('',#1424,#1153,#1154);
#951=AXIS2_PLACEMENT_3D('',#1425,#1155,#1156);
#952=AXIS2_PLACEMENT_3D('',#1427,#1157,#1158);
#953=AXIS2_PLACEMENT_3D('',#1431,#1161,#1162);
#954=AXIS2_PLACEMENT_3D('',#1433,#1164,#1165);
#955=AXIS2_PLACEMENT_3D('',#1434,#1166,#1167);
#956=AXIS2_PLACEMENT_3D('',#1436,#1168,#1169);
#957=AXIS2_PLACEMENT_3D('',#1437,#1170,#1171);
#958=AXIS2_PLACEMENT_3D('',#1438,#1172,#1173);
#959=AXIS2_PLACEMENT_3D('',#1439,#1174,#1175);
#960=AXIS2_PLACEMENT_3D('',#1440,#1176,#1177);
#961=AXIS2_PLACEMENT_3D('',#1441,#1178,#1179);
#962=AXIS2_PLACEMENT_3D('',#1442,#1180,#1181);
#963=AXIS2_PLACEMENT_3D('',#1443,#1182,#1183);
#964=AXIS2_PLACEMENT_3D('',#1444,#1184,#1185);
#965=AXIS2_PLACEMENT_3D('',#1445,#1186,#1187);
#966=AXIS2_PLACEMENT_3D('',#1446,#1188,#1189);
#967=AXIS2_PLACEMENT_3D('',#1448,#1190,#1191);
#968=AXIS2_PLACEMENT_3D('',#1449,#1192,#1193);
#969=AXIS2_PLACEMENT_3D('',#1451,#1194,#1195);
#970=AXIS2_PLACEMENT_3D('',#1452,#1196,#1197);
#971=AXIS2_PLACEMENT_3D('',#1453,#1198,#1199);
#972=AXIS2_PLACEMENT_3D('',#1454,#1200,#1201);
#973=AXIS2_PLACEMENT_3D('',#1455,#1202,#1203);
#974=AXIS2_PLACEMENT_3D('',#1458,#1206,#1207);
#975=AXIS2_PLACEMENT_3D('',#1460,#1209,#1210);
#976=AXIS2_PLACEMENT_3D('',#1462,#1212,#1213);
#977=DIRECTION('',(0.,0.,1.));
#978=DIRECTION('',(1.,0.,0.));
#979=DIRECTION('',(-1.,0.,0.));
#980=DIRECTION('',(0.,0.,1.));
#981=DIRECTION('',(0.,-1.,0.));
#982=DIRECTION('',(0.,0.,-1.));
#983=DIRECTION('',(0.,1.,0.));
#984=DIRECTION('',(0.,0.,1.));
#985=DIRECTION('',(0.,1.,0.));
#986=DIRECTION('',(0.,0.,1.));
#987=DIRECTION('',(-1.77977971609013E-16,1.,0.));
#988=DIRECTION('',(0.,0.,-1.));
#989=DIRECTION('',(-1.,-1.85099488068671E-16,0.));
#990=DIRECTION('',(1.85099488068671E-16,-1.,0.));
#991=DIRECTION('',(0.,0.,-1.));
#992=DIRECTION('',(-1.85099488068671E-16,1.,0.));
#993=DIRECTION('',(0.,0.,-1.));
#994=DIRECTION('',(-1.85099488068671E-16,1.,0.));
#995=DIRECTION('',(0.,0.,-1.));
#996=DIRECTION('',(1.85099488068671E-16,-1.,0.));
#997=DIRECTION('',(0.,0.,-1.));
#998=DIRECTION('',(-1.85099488068671E-16,1.,0.));
#999=DIRECTION('',(0.,0.,-1.));
#1000=DIRECTION('',(-1.85099488068671E-16,1.,0.));
#1001=DIRECTION('',(1.85099488068671E-16,-1.,0.));
#1002=DIRECTION('',(0.,0.,-1.));
#1003=DIRECTION('',(1.85099488068671E-16,-1.,0.));
#1004=DIRECTION('',(0.,0.,-1.));
#1005=DIRECTION('',(0.,1.,0.));
#1006=DIRECTION('',(0.,0.,1.));
#1007=DIRECTION('',(0.,0.,-1.));
#1008=DIRECTION('',(-1.,-1.41610079288189E-16,0.));
#1009=DIRECTION('',(0.,0.,-1.));
#1010=DIRECTION('',(-1.,0.,0.));
#1011=DIRECTION('',(-1.,0.,0.));
#1012=DIRECTION('',(-1.,0.,0.));
#1013=DIRECTION('',(0.849719662639431,0.,0.527234762628501));
#1014=DIRECTION('',(-1.,-1.85099488068671E-16,0.));
#1015=DIRECTION('',(1.,0.,0.));
#1016=DIRECTION('',(0.,1.,0.));
#1017=DIRECTION('',(0.,0.,1.));
#1018=DIRECTION('',(-1.,0.,0.));
#1019=DIRECTION('',(-1.,-1.13630709235444E-16,0.));
#1020=DIRECTION('',(1.,0.,0.));
#1021=DIRECTION('',(0.,0.,-1.));
#1022=DIRECTION('',(1.,0.,0.));
#1023=DIRECTION('',(1.,0.,0.));
#1024=DIRECTION('',(0.,0.,-1.));
#1025=DIRECTION('',(-1.,0.,0.));
#1026=DIRECTION('',(0.,0.,-1.));
#1027=DIRECTION('',(1.,2.54602475076025E-16,0.));
#1028=DIRECTION('',(-2.54602475076025E-16,1.,0.));
#1029=DIRECTION('',(0.,0.,-1.));
#1030=DIRECTION('',(2.54602475076025E-16,-1.,0.));
#1031=DIRECTION('',(0.,0.,-1.));
#1032=DIRECTION('',(2.54602475076025E-16,-1.,0.));
#1033=DIRECTION('',(-1.,0.,0.));
#1034=DIRECTION('',(0.,0.,1.));
#1035=DIRECTION('',(0.,1.,0.));
#1036=DIRECTION('',(-1.82207308567598E-16,1.,0.));
#1037=DIRECTION('',(0.,0.,-1.));
#1038=DIRECTION('',(-1.,-1.7347234759768E-16,0.));
#1039=DIRECTION('',(1.7347234759768E-16,-1.,0.));
#1040=DIRECTION('',(-1.85099488068671E-16,1.,0.));
#1041=DIRECTION('',(-1.7347234759768E-16,1.,0.));
#1042=DIRECTION('',(0.,-1.,0.));
#1043=DIRECTION('',(0.,0.,-1.));
#1044=DIRECTION('',(-1.,0.,0.));
#1045=DIRECTION('',(1.,2.42922501626322E-16,0.));
#1046=DIRECTION('',(0.,0.,1.));
#1047=DIRECTION('',(1.,0.,0.));
#1048=DIRECTION('',(0.,0.,1.));
#1049=DIRECTION('',(1.,0.,0.));
#1050=DIRECTION('',(0.,0.,1.));
#1051=DIRECTION('',(1.,0.,0.));
#1052=DIRECTION('',(-2.45191128855203E-16,1.,0.));
#1053=DIRECTION('',(-1.,-2.45191128855203E-16,0.));
#1054=DIRECTION('',(1.,2.45191128855203E-16,0.));
#1055=DIRECTION('',(0.,0.,-1.));
#1056=DIRECTION('',(1.,2.45191128855203E-16,0.));
#1057=DIRECTION('',(0.,0.,-1.));
#1058=DIRECTION('',(-1.,0.,0.));
#1059=DIRECTION('',(0.,0.,1.));
#1060=DIRECTION('',(0.,1.,0.));
#1061=DIRECTION('',(0.,0.,-1.));
#1062=DIRECTION('',(0.,1.,0.));
#1063=DIRECTION('',(0.,1.,0.));
#1064=DIRECTION('',(0.,0.,1.));
#1065=DIRECTION('',(1.,0.,0.));
#1066=DIRECTION('',(0.,0.,-1.));
#1067=DIRECTION('',(1.,0.,0.));
#1068=DIRECTION('',(-1.,-1.8130809545952E-16,0.));
#1069=DIRECTION('',(1.8130809545952E-16,-1.,0.));
#1070=DIRECTION('',(-1.8130809545952E-16,1.,0.));
#1071=DIRECTION('',(-1.8130809545952E-16,1.,0.));
#1072=DIRECTION('',(0.,0.,1.));
#1073=DIRECTION('',(1.,0.,0.));
#1074=DIRECTION('',(0.,0.,1.));
#1075=DIRECTION('',(1.,0.,0.));
#1076=DIRECTION('',(1.,0.,0.));
#1077=DIRECTION('',(-0.707106781186548,0.707106781186548,0.));
#1078=DIRECTION('',(0.707106781186548,0.707106781186548,0.));
#1079=DIRECTION('',(-1.,0.,0.));
#1080=DIRECTION('',(0.707106781186555,-0.70710678118654,0.));
#1081=DIRECTION('',(2.41320639466635E-16,-1.,0.));
#1082=DIRECTION('',(-0.707106781186553,-0.707106781186543,0.));
#1083=DIRECTION('',(0.,1.,0.));
#1084=DIRECTION('',(0.,0.,1.));
#1085=DIRECTION('',(1.,0.,0.));
#1086=DIRECTION('',(0.,0.,-1.));
#1087=DIRECTION('',(0.,0.,1.));
#1088=DIRECTION('',(0.,-1.,0.));
#1089=DIRECTION('',(0.,0.,-1.));
#1090=DIRECTION('',(-1.,-6.73843878582928E-17,0.));
#1091=DIRECTION('',(0.,0.,-1.));
#1092=DIRECTION('',(0.,0.,1.));
#1093=DIRECTION('',(0.,0.,-1.));
#1094=DIRECTION('',(-1.,0.,0.));
#1095=DIRECTION('',(0.,0.,1.));
#1096=DIRECTION('',(1.,0.,0.));
#1097=DIRECTION('',(0.,0.,-1.));
#1098=DIRECTION('',(-1.,0.,0.));
#1099=DIRECTION('',(0.,0.,1.));
#1100=DIRECTION('',(1.,0.,0.));
#1101=DIRECTION('',(1.,2.41320639466635E-16,0.));
#1102=DIRECTION('',(-2.41320639466635E-16,1.,0.));
#1103=DIRECTION('',(2.41320639466635E-16,-1.,0.));
#1104=DIRECTION('',(0.,0.,-1.));
#1105=DIRECTION('',(0.,0.,1.));
#1106=DIRECTION('',(0.,0.,1.));
#1107=DIRECTION('',(1.,0.,0.));
#1108=DIRECTION('',(0.,1.,0.));
#1109=DIRECTION('',(0.,-1.,0.));
#1110=DIRECTION('',(-1.,0.,0.));
#1111=DIRECTION('',(-1.,0.,0.));
#1112=DIRECTION('',(0.707106781186548,-0.707106781186548,0.));
#1113=DIRECTION('',(0.707106781186553,0.707106781186543,0.));
#1114=DIRECTION('',(-0.707106781186555,0.70710678118654,0.));
#1115=DIRECTION('',(-0.707106781186548,-0.707106781186548,0.));
#1116=DIRECTION('',(0.,0.,1.));
#1117=DIRECTION('',(1.,0.,0.));
#1118=DIRECTION('',(0.,0.,1.));
#1119=DIRECTION('',(1.,0.,0.));
#1120=DIRECTION('',(0.,0.,1.));
#1121=DIRECTION('',(1.,0.,0.));
#1122=DIRECTION('',(0.,0.,1.));
#1123=DIRECTION('',(1.,0.,0.));
#1124=DIRECTION('',(0.,0.,1.));
#1125=DIRECTION('',(1.,0.,0.));
#1126=DIRECTION('',(-1.85099488068671E-16,1.,0.));
#1127=DIRECTION('',(-1.,-1.85099488068671E-16,0.));
#1128=DIRECTION('',(-1.85099488068671E-16,1.,0.));
#1129=DIRECTION('',(-1.,-1.85099488068671E-16,0.));
#1130=DIRECTION('',(-0.849719662639431,-1.57282674556442E-16,-0.527234762628501));
#1131=DIRECTION('',(0.527234762628501,9.75908846545428E-17,-0.849719662639431));
#1132=DIRECTION('',(1.85099488068671E-16,-1.,0.));
#1133=DIRECTION('',(0.527234762628501,9.75908846545428E-17,-0.849719662639431));
#1134=DIRECTION('',(0.849719662639431,1.57282674556442E-16,0.527234762628501));
#1135=DIRECTION('',(1.85099488068671E-16,-1.,0.));
#1136=DIRECTION('',(0.,0.,1.));
#1137=DIRECTION('',(1.,0.,0.));
#1138=DIRECTION('',(0.,0.,1.));
#1139=DIRECTION('',(1.,0.,0.));
#1140=DIRECTION('',(0.,0.,1.));
#1141=DIRECTION('',(1.,0.,0.));
#1142=DIRECTION('',(0.,0.,1.));
#1143=DIRECTION('',(1.,0.,0.));
#1144=DIRECTION('',(0.,0.,1.));
#1145=DIRECTION('',(1.,0.,0.));
#1146=DIRECTION('',(0.,-1.,0.));
#1147=DIRECTION('',(0.,0.,-1.));
#1148=DIRECTION('',(-1.,0.,0.));
#1149=DIRECTION('',(0.,0.,-1.));
#1150=DIRECTION('',(-1.,0.,0.));
#1151=DIRECTION('',(0.,0.,1.));
#1152=DIRECTION('',(0.,1.,0.));
#1153=DIRECTION('',(0.,0.,-1.));
#1154=DIRECTION('',(-1.,0.,0.));
#1155=DIRECTION('',(0.,0.,1.));
#1156=DIRECTION('',(1.,0.,0.));
#1157=DIRECTION('',(0.,-1.,0.));
#1158=DIRECTION('',(0.,0.,-1.));
#1159=DIRECTION('',(-1.,0.,0.));
#1160=DIRECTION('',(0.,0.,-1.));
#1161=DIRECTION('',(1.,0.,0.));
#1162=DIRECTION('',(0.,0.,-1.));
#1163=DIRECTION('',(0.,-1.,0.));
#1164=DIRECTION('',(0.,0.,-1.));
#1165=DIRECTION('',(-1.,0.,0.));
#1166=DIRECTION('',(0.,0.,1.));
#1167=DIRECTION('',(1.,0.,0.));
#1168=DIRECTION('',(0.,0.,1.));
#1169=DIRECTION('',(1.,0.,0.));
#1170=DIRECTION('',(0.,0.,1.));
#1171=DIRECTION('',(1.,0.,0.));
#1172=DIRECTION('',(-0.707106781186548,-0.707106781186548,0.));
#1173=DIRECTION('',(0.,0.,1.));
#1174=DIRECTION('',(0.707106781186543,-0.707106781186553,0.));
#1175=DIRECTION('',(0.,0.,1.));
#1176=DIRECTION('',(0.70710678118654,0.707106781186555,0.));
#1177=DIRECTION('',(0.,0.,1.));
#1178=DIRECTION('',(-0.707106781186548,0.707106781186548,0.));
#1179=DIRECTION('',(0.,0.,1.));
#1180=DIRECTION('',(0.,0.,1.));
#1181=DIRECTION('',(1.,0.,0.));
#1182=DIRECTION('',(0.,0.,1.));
#1183=DIRECTION('',(1.,0.,0.));
#1184=DIRECTION('',(0.,0.,1.));
#1185=DIRECTION('',(1.,0.,0.));
#1186=DIRECTION('',(0.,0.,-1.));
#1187=DIRECTION('',(-1.,0.,0.));
#1188=DIRECTION('',(0.,0.,1.));
#1189=DIRECTION('',(1.,0.,0.));
#1190=DIRECTION('',(0.,0.,-1.));
#1191=DIRECTION('',(-1.,0.,0.));
#1192=DIRECTION('',(0.,0.,1.));
#1193=DIRECTION('',(1.,0.,0.));
#1194=DIRECTION('',(0.,0.,1.));
#1195=DIRECTION('',(1.,0.,0.));
#1196=DIRECTION('',(0.,0.,1.));
#1197=DIRECTION('',(1.,0.,0.));
#1198=DIRECTION('',(0.,0.,1.));
#1199=DIRECTION('',(1.,0.,0.));
#1200=DIRECTION('',(0.,0.,1.));
#1201=DIRECTION('',(1.,0.,0.));
#1202=DIRECTION('',(-0.707106781186548,-0.707106781186548,0.));
#1203=DIRECTION('',(0.,0.,1.));
#1204=DIRECTION('',(-0.577350269189626,0.577350269189626,-0.577350269189625));
#1205=DIRECTION('',(0.577350269189626,-0.577350269189626,-0.577350269189625));
#1206=DIRECTION('',(0.707106781186547,0.,0.707106781186548));
#1207=DIRECTION('',(0.,-1.,0.));
#1208=DIRECTION('',(-0.577350269189626,-0.577350269189626,0.577350269189626));
#1209=DIRECTION('',(-0.707106781186547,0.,0.707106781186548));
#1210=DIRECTION('',(0.,1.,0.));
#1211=DIRECTION('',(-0.577350269189626,-0.577350269189626,-0.577350269189626));
#1212=DIRECTION('',(0.707106781186547,-0.707106781186548,0.));
#1213=DIRECTION('',(0.,0.,-1.));
#1214=CARTESIAN_POINT('',(0.,0.,0.));
#1215=CARTESIAN_POINT('',(-0.104487400350324,-0.0229670792128479,0.01));
#1216=CARTESIAN_POINT('',(-0.104487400350324,-0.0229670792128479,0.0167779004871845));
#1217=CARTESIAN_POINT('',(-0.104487400350324,0.0244451849460602,0.0167779004871845));
#1218=CARTESIAN_POINT('',(-0.104487400350324,0.00440069337189198,0.0167779004871845));
#1219=CARTESIAN_POINT('',(-0.104487400350324,0.00440069337189198,0.01));
#1220=CARTESIAN_POINT('',(-0.104487400350324,0.00440069337189198,0.00530142945051193));
#1221=CARTESIAN_POINT('',(-0.104487400350324,0.0214451849460602,0.00530142945051193));
#1222=CARTESIAN_POINT('',(-0.104487400350324,0.0244451849460602,0.00530142945051193));
#1223=CARTESIAN_POINT('',(-0.104487400350324,0.0244451849460602,0.0137779004871845));
#1224=CARTESIAN_POINT('',(-0.104487400350324,-0.0229670792128479,0.));
#1225=CARTESIAN_POINT('',(-0.104487400350324,-0.0555076703081914,0.));
#1226=CARTESIAN_POINT('',(-0.104487400350324,0.0555076705966484,0.));
#1227=CARTESIAN_POINT('',(-0.104487400350324,-0.0555076703081914,0.02129149));
#1228=CARTESIAN_POINT('',(-0.104487400350324,-0.0555076703081914,0.02129149));
#1229=CARTESIAN_POINT('',(-0.104487400350324,0.0185202956919003,0.02129149));
#1230=CARTESIAN_POINT('',(-0.104487400350324,0.0555076705966484,0.02129149));
#1231=CARTESIAN_POINT('',(-0.104487400350324,0.0555076705966484,0.));
#1232=CARTESIAN_POINT('',(-0.101487400350324,0.0170202956919003,0.02129149));
#1233=CARTESIAN_POINT('',(-0.101487400350324,-0.0545076703081914,0.02129149));
#1234=CARTESIAN_POINT('',(-0.101487400350324,-0.0545076703081914,0.02129149));
#1235=CARTESIAN_POINT('',(-0.101487400350324,-0.0545076703081914,0.01929149));
#1236=CARTESIAN_POINT('',(-0.101487400350324,-0.0495076703081914,0.01929149));
#1237=CARTESIAN_POINT('',(-0.101487400350324,-0.0445076703081915,0.01929149));
#1238=CARTESIAN_POINT('',(-0.101487400350324,-0.0445076703081915,0.01554149));
#1239=CARTESIAN_POINT('',(-0.101487400350324,-0.0445076703081915,0.01179149));
#1240=CARTESIAN_POINT('',(-0.101487400350324,-0.0495076703081914,0.01179149));
#1241=CARTESIAN_POINT('',(-0.101487400350324,-0.0545076703081914,0.01179149));
#1242=CARTESIAN_POINT('',(-0.101487400350324,-0.0545076703081914,0.02129149));
#1243=CARTESIAN_POINT('',(-0.101487400350324,-0.0545076703081914,0.01));
#1244=CARTESIAN_POINT('',(-0.101487400350324,1.442284714767E-10,0.01));
#1245=CARTESIAN_POINT('',(-0.101487400350324,-0.0204670792128479,0.01));
#1246=CARTESIAN_POINT('',(-0.101487400350324,-0.0204670792128479,0.01));
#1247=CARTESIAN_POINT('',(-0.101487400350324,-0.0204670792128478,0.0075));
#1248=CARTESIAN_POINT('',(-0.101487400350324,0.0170202956919003,0.0075));
#1249=CARTESIAN_POINT('',(-0.101487400350324,0.0545076705966484,0.0075));
#1250=CARTESIAN_POINT('',(-0.101487400350324,0.0545076705966484,0.02129149));
#1251=CARTESIAN_POINT('',(-0.101487400350324,0.0545076705966484,0.02129149));
#1252=CARTESIAN_POINT('',(-0.101487400350324,0.0170202956919003,0.02129149));
#1253=CARTESIAN_POINT('',(-0.101487400350324,0.0170202956919003,0.0137779004871845));
#1254=CARTESIAN_POINT('',(-0.101487400350324,0.0214451849460602,0.0137779004871845));
#1255=CARTESIAN_POINT('',(-0.101487400350324,0.00740069337189198,0.0137779004871845));
#1256=CARTESIAN_POINT('',(-0.101487400350324,0.0214451849460602,0.02129149));
#1257=CARTESIAN_POINT('',(-0.101487400350324,0.0214451849460602,0.00830142945051193));
#1258=CARTESIAN_POINT('',(-0.101487400350324,0.0170202956919003,0.00830142945051193));
#1259=CARTESIAN_POINT('',(-0.101487400350324,0.00740069337189198,0.00830142945051193));
#1260=CARTESIAN_POINT('',(-0.101487400350324,0.00740069337189198,0.02129149));
#1261=CARTESIAN_POINT('',(0.000987400259270004,-0.0545076703081914,0.02129149));
#1262=CARTESIAN_POINT('',(0.0914874005245897,-0.0545076703081914,0.02129149));
#1263=CARTESIAN_POINT('',(0.0914874005245897,-0.0545076703081914,0.02129149));
#1264=CARTESIAN_POINT('',(0.0914874005245897,-0.0545076703081914,0.005));
#1265=CARTESIAN_POINT('',(0.0524874003919298,-0.0545076703081914,0.005));
#1266=CARTESIAN_POINT('',(0.00348740025927001,-0.0545076703081914,0.005));
#1267=CARTESIAN_POINT('',(0.00348740025927001,-0.0545076703081914,0.01));
#1268=CARTESIAN_POINT('',(0.00348740025927001,-0.0545076703081914,0.01));
#1269=CARTESIAN_POINT('',(8.71329675078414E-11,-0.0545076703081914,0.01));
#1270=CARTESIAN_POINT('',(-0.0308874003503237,-0.0545076703081914,0.01));
#1271=CARTESIAN_POINT('',(8.71329675078414E-11,-0.0545076703081914,0.01));
#1272=CARTESIAN_POINT('',(-0.0912874003503237,-0.0545076703081914,0.01));
#1273=CARTESIAN_POINT('',(8.71329675078414E-11,-0.0545076703081914,0.01));
#1274=CARTESIAN_POINT('',(-0.0894000003503237,-0.0545076703081914,0.01929149));
#1275=CARTESIAN_POINT('',(-0.0894000003503237,-0.0545076703081914,0.01929149));
#1276=CARTESIAN_POINT('',(-0.0894000003503237,-0.0545076703081914,0.01929149));
#1277=CARTESIAN_POINT('',(0.000987400259270004,-0.0545076703081914,0.02129149));
#1278=CARTESIAN_POINT('',(-0.0515000000455269,0.0545076705966484,0.02129149));
#1279=CARTESIAN_POINT('',(0.00737872641451141,0.0545076705966484,0.005));
#1280=CARTESIAN_POINT('',(0.01473740025927,0.0545076705966484,0.005));
#1281=CARTESIAN_POINT('',(0.00348740025926999,0.0545076705966484,0.005));
#1282=CARTESIAN_POINT('',(0.0487374003919298,0.0545076705966484,0.005));
#1283=CARTESIAN_POINT('',(0.0827374005245896,0.0545076705966484,0.005));
#1284=CARTESIAN_POINT('',(-0.0515000000455269,0.0545076705966484,0.005));
#1285=CARTESIAN_POINT('',(0.0914874005245896,0.0545076705966484,0.005));
#1286=CARTESIAN_POINT('',(0.0914874005245896,0.0545076705966484,0.02129149));
#1287=CARTESIAN_POINT('',(0.0914874005245896,0.0545076705966484,0.02129149));
#1288=CARTESIAN_POINT('',(-0.0515000000455269,0.0545076705966484,0.02129149));
#1289=CARTESIAN_POINT('',(-0.0515000000455269,0.0545076705966484,0.0075));
#1290=CARTESIAN_POINT('',(-0.00151259974073001,0.0545076705966484,0.0075));
#1291=CARTESIAN_POINT('',(-0.00151259974073001,0.0545076705966484,0.01));
#1292=CARTESIAN_POINT('',(-0.00151259974073001,0.0545076705966484,0.01));
#1293=CARTESIAN_POINT('',(8.71329675078414E-11,0.0545076705966484,0.01));
#1294=CARTESIAN_POINT('',(0.00348740025926999,0.0545076705966484,0.01));
#1295=CARTESIAN_POINT('',(0.00348740025926999,0.0545076705966484,0.01));
#1296=CARTESIAN_POINT('',(0.10148740052459,1.4422849720086E-10,0.02129149));
#1297=CARTESIAN_POINT('',(0.10148740052459,0.0445076705966484,0.02129149));
#1298=CARTESIAN_POINT('',(0.10148740052459,0.0445076705966484,0.02129149));
#1299=CARTESIAN_POINT('',(0.10148740052459,0.0445076705966484,0.005));
#1300=CARTESIAN_POINT('',(0.10148740052459,1.4422849720086E-10,0.005));
#1301=CARTESIAN_POINT('',(0.10148740052459,-0.0445076703081914,0.005));
#1302=CARTESIAN_POINT('',(0.10148740052459,-0.0445076703081914,0.02129149));
#1303=CARTESIAN_POINT('',(0.10148740052459,-0.0445076703081914,0.02129149));
#1304=CARTESIAN_POINT('',(0.10148740052459,1.4422849720086E-10,0.02129149));
#1305=CARTESIAN_POINT('',(-0.00151259974073001,0.0560076705966484,0.01));
#1306=CARTESIAN_POINT('',(-0.00151259974073001,0.0560076705966484,0.01));
#1307=CARTESIAN_POINT('',(-0.00151259974073,-0.0204670792128478,0.01));
#1308=CARTESIAN_POINT('',(-0.00151259974073,0.0170202956919003,0.0075));
#1309=CARTESIAN_POINT('',(-0.00151259974073,-0.0204670792128478,0.0075));
#1310=CARTESIAN_POINT('',(-0.00151259974073,-0.0204670792128478,0.01));
#1311=CARTESIAN_POINT('',(0.00348740025927,-0.0229670792128479,0.01));
#1312=CARTESIAN_POINT('',(0.00348740025927,0.0170202956919003,0.005));
#1313=CARTESIAN_POINT('',(0.00348740025927,-0.0229670792128479,0.01));
#1314=CARTESIAN_POINT('',(-0.102987400350324,-0.0204670792128479,0.01));
#1315=CARTESIAN_POINT('',(-0.102987400350324,-0.0204670792128479,0.01));
#1316=CARTESIAN_POINT('',(-0.0515000000455269,-0.0204670792128478,0.0075));
#1317=CARTESIAN_POINT('',(8.71329675078414E-11,1.44228490261966E-10,0.01));
#1318=CARTESIAN_POINT('',(-0.0912874003503237,-0.0493076703081914,0.01));
#1319=CARTESIAN_POINT('',(-0.0308874003503237,-0.0493076703081914,0.01));
#1320=CARTESIAN_POINT('',(-0.0505000000455269,-0.0154670792128479,0.0075));
#1321=CARTESIAN_POINT('',(-0.0505000000455269,-0.0154670792128479,0.001));
#1322=CARTESIAN_POINT('',(-0.0964874003503237,-0.0154670792128479,0.001));
#1323=CARTESIAN_POINT('',(-0.00451259974073,-0.0154670792128479,0.001));
#1324=CARTESIAN_POINT('',(-0.0964874003503237,-0.0154670792128479,0.0075));
#1325=CARTESIAN_POINT('',(-0.0964874003503237,-0.0154670792128479,0.0075));
#1326=CARTESIAN_POINT('',(-0.0505000000455269,-0.0154670792128479,0.0075));
#1327=CARTESIAN_POINT('',(-0.00451259974073,-0.0154670792128479,0.0075));
#1328=CARTESIAN_POINT('',(-0.00451259974073,-0.0154670792128479,0.0075));
#1329=CARTESIAN_POINT('',(-0.0964874003503237,0.0180202956919003,0.0075));
#1330=CARTESIAN_POINT('',(-0.0964874003503237,0.0180202956919003,0.001));
#1331=CARTESIAN_POINT('',(-0.0964874003503237,0.0515076705966484,0.001));
#1332=CARTESIAN_POINT('',(-0.0964874003503237,0.0515076705966484,0.0075));
#1333=CARTESIAN_POINT('',(-0.0964874003503237,0.0515076705966484,0.0075));
#1334=CARTESIAN_POINT('',(-0.0964874003503237,0.0180202956919003,0.0075));
#1335=CARTESIAN_POINT('',(-0.0505000000455269,0.0515076705966484,0.0075));
#1336=CARTESIAN_POINT('',(-0.0505000000455269,0.0515076705966484,0.001));
#1337=CARTESIAN_POINT('',(-0.00451259974073001,0.0515076705966484,0.001));
#1338=CARTESIAN_POINT('',(-0.00451259974073001,0.0515076705966484,0.0075));
#1339=CARTESIAN_POINT('',(-0.00451259974073001,0.0515076705966484,0.0075));
#1340=CARTESIAN_POINT('',(-0.0505000000455269,0.0515076705966484,0.0075));
#1341=CARTESIAN_POINT('',(-0.00451259974073001,0.0180202956919003,0.0075));
#1342=CARTESIAN_POINT('',(-0.00451259974073001,0.0180202956919003,0.001));
#1343=CARTESIAN_POINT('',(-0.00451259974073001,0.0180202956919003,0.0075));
#1344=CARTESIAN_POINT('',(8.71329675078414E-11,1.44228490261966E-10,0.0075));
#1345=CARTESIAN_POINT('',(8.71329675078414E-11,1.44228490261966E-10,0.));
#1346=CARTESIAN_POINT('',(-0.0505000000455269,-0.0575076703081914,0.));
#1347=CARTESIAN_POINT('',(-0.102487400350324,-0.0575076703081914,0.));
#1348=CARTESIAN_POINT('',(0.10248740052459,-0.0575076703081914,0.));
#1349=CARTESIAN_POINT('',(-0.102487400350324,-0.0575076703081914,0.));
#1350=CARTESIAN_POINT('',(-0.104487400350324,0.0555076705966484,0.));
#1351=CARTESIAN_POINT('',(-0.102487400350324,0.0575076705966484,0.));
#1352=CARTESIAN_POINT('',(0.000987400259269987,0.0575076705966484,0.));
#1353=CARTESIAN_POINT('',(0.10248740052459,0.0575076705966484,0.));
#1354=CARTESIAN_POINT('',(0.10248740052459,0.0575076705966484,0.));
#1355=CARTESIAN_POINT('',(0.10448740052459,0.0555076705966484,0.));
#1356=CARTESIAN_POINT('',(0.10448740052459,1.44228490261966E-10,0.));
#1357=CARTESIAN_POINT('',(0.10448740052459,-0.0555076703081914,0.));
#1358=CARTESIAN_POINT('',(0.10448740052459,-0.0555076703081914,0.));
#1359=CARTESIAN_POINT('',(-0.0505000000455269,-0.0575076703081914,0.01));
#1360=CARTESIAN_POINT('',(-0.0505000000455269,-0.0575076703081914,0.02129149));
#1361=CARTESIAN_POINT('',(-0.102487400350324,-0.0575076703081914,0.02129149));
#1362=CARTESIAN_POINT('',(0.10248740052459,-0.0575076703081914,0.02129149));
#1363=CARTESIAN_POINT('',(-0.102487400350324,-0.0575076703081914,0.));
#1364=CARTESIAN_POINT('',(0.10248740052459,-0.0575076703081914,0.02129149));
#1365=CARTESIAN_POINT('',(0.000987400259269987,0.0575076705966484,0.01));
#1366=CARTESIAN_POINT('',(-0.0530000000455269,0.0575076705966484,0.02129149));
#1367=CARTESIAN_POINT('',(0.10248740052459,0.0575076705966484,0.02129149));
#1368=CARTESIAN_POINT('',(-0.102487400350324,0.0575076705966484,0.02129149));
#1369=CARTESIAN_POINT('',(0.10248740052459,0.0575076705966484,0.));
#1370=CARTESIAN_POINT('',(-0.102487400350324,0.0575076705966484,0.02129149));
#1371=CARTESIAN_POINT('',(-0.0308874003503237,-0.0493076703081914,0.01));
#1372=CARTESIAN_POINT('',(-0.0308874003503237,-0.0493076703081914,0.002));
#1373=CARTESIAN_POINT('',(-0.0256874003503237,-0.0493076703081914,0.002));
#1374=CARTESIAN_POINT('',(-0.0912874003503237,-0.0493076703081914,0.01));
#1375=CARTESIAN_POINT('',(-0.0912874003503237,-0.0493076703081914,0.002));
#1376=CARTESIAN_POINT('',(-0.0860874003503237,-0.0493076703081914,0.002));
#1377=CARTESIAN_POINT('',(0.10448740052459,1.44228490261966E-10,0.02129149));
#1378=CARTESIAN_POINT('',(0.10448740052459,1.44228490261966E-10,0.02129149));
#1379=CARTESIAN_POINT('',(0.10448740052459,0.0555076705966484,0.02129149));
#1380=CARTESIAN_POINT('',(0.10448740052459,-0.0555076703081914,0.02129149));
#1381=CARTESIAN_POINT('',(0.10448740052459,-0.0555076703081914,0.));
#1382=CARTESIAN_POINT('',(0.10448740052459,0.0555076705966484,0.02129149));
#1383=CARTESIAN_POINT('',(8.71329675078414E-11,1.44228490261966E-10,0.02129149));
#1384=CARTESIAN_POINT('',(0.0914874005245897,-0.0495076703081914,0.02129149));
#1385=CARTESIAN_POINT('',(0.0914874005245897,-0.0445076703081914,0.02129149));
#1386=CARTESIAN_POINT('',(0.0914874005245896,0.0495076705966484,0.02129149));
#1387=CARTESIAN_POINT('',(0.0914874005245896,0.0445076705966484,0.02129149));
#1388=CARTESIAN_POINT('',(0.0964874005245896,0.0445076705966484,0.02129149));
#1389=CARTESIAN_POINT('',(0.0964874005245897,-0.0445076703081914,0.02129149));
#1390=CARTESIAN_POINT('',(-0.0799975353578053,-0.0799975353007098,0.02129149));
#1391=CARTESIAN_POINT('',(0.0799975355320706,-0.0799975353007102,0.02129149));
#1392=CARTESIAN_POINT('',(0.0799975355320702,0.0799975355891674,0.02129149));
#1393=CARTESIAN_POINT('',(-0.0799975353578053,0.0799975355891668,0.02129149));
#1394=CARTESIAN_POINT('',(0.0964874005245897,-0.0495076703081914,0.02129149));
#1395=CARTESIAN_POINT('',(0.0991374005245897,-0.0495076703081914,0.02129149));
#1396=CARTESIAN_POINT('',(0.0964874005245896,0.0495076705966484,0.02129149));
#1397=CARTESIAN_POINT('',(0.0991374005245896,0.0495076705966484,0.02129149));
#1398=CARTESIAN_POINT('',(8.71329675078414E-11,1.44228490261966E-10,0.001));
#1399=CARTESIAN_POINT('',(-0.0894000003503237,-0.0495076703081914,0.01929149));
#1400=CARTESIAN_POINT('',(-0.0946000003503237,-0.0497076703081914,0.01929149));
#1401=CARTESIAN_POINT('',(-0.0930000003503237,-0.0497076703081914,0.01929149));
#1402=CARTESIAN_POINT('',(-0.0894000003503237,-0.0495076703081914,0.01929149));
#1403=CARTESIAN_POINT('',(-0.0894000003503237,-0.0445076703081915,0.01929149));
#1404=CARTESIAN_POINT('',(-0.0894000003503237,-0.0445076703081915,0.01929149));
#1405=CARTESIAN_POINT('',(-0.0894000003503237,-0.0445076703081915,0.01554149));
#1406=CARTESIAN_POINT('',(-0.0910800068926955,-0.0445076703081915,0.0182490781440353));
#1407=CARTESIAN_POINT('',(-0.0894000003503237,1.4422848759186E-10,0.01929149));
#1408=CARTESIAN_POINT('',(-0.0946000003503237,-0.0497076703081914,0.01606498967735));
#1409=CARTESIAN_POINT('',(-0.0926233070169904,-0.0525960406905966,0.01729149));
#1410=CARTESIAN_POINT('',(-0.0926233070169904,-0.0468192999257862,0.01729149));
#1411=CARTESIAN_POINT('',(-0.0926233070169904,1.44228486995227E-10,0.01729149));
#1412=CARTESIAN_POINT('',(-0.0946000003503237,-0.0497076703081914,0.01179149));
#1413=CARTESIAN_POINT('',(-0.0946000003503237,-0.0497076703081914,0.01729149));
#1414=CARTESIAN_POINT('',(-0.0930000003503237,-0.0497076703081914,0.01729149));
#1415=CARTESIAN_POINT('',(-0.0946000003503237,-0.0497076703081914,0.01229149));
#1416=CARTESIAN_POINT('',(-0.0946000003503237,-0.0497076703081914,0.01729149));
#1417=CARTESIAN_POINT('',(-0.0954437003503237,-0.0495076703081914,0.01729149));
#1418=CARTESIAN_POINT('',(0.0964874005245897,-0.0445076703081914,0.02129149));
#1419=CARTESIAN_POINT('',(0.0964874005245897,-0.0445076703081914,0.005));
#1420=CARTESIAN_POINT('',(0.0914874005245897,-0.0445076703081914,0.005));
#1421=CARTESIAN_POINT('',(0.0914874005245897,-0.0445076703081914,0.02129149));
#1422=CARTESIAN_POINT('',(0.0914874005245897,-0.0495076703081914,0.02129149));
#1423=CARTESIAN_POINT('',(0.0914874005245897,-0.0495076703081914,0.005));
#1424=CARTESIAN_POINT('',(0.0964874005245897,-0.0495076703081914,0.02129149));
#1425=CARTESIAN_POINT('',(0.0964874005245897,-0.0495076703081914,0.01129149));
#1426=CARTESIAN_POINT('',(0.0991374005245897,-0.0495076703081914,0.01129149));
#1427=CARTESIAN_POINT('',(0.0964874005245896,0.0445076705966484,0.02129149));
#1428=CARTESIAN_POINT('',(0.0964874005245896,0.0445076705966484,0.005));
#1429=CARTESIAN_POINT('',(0.0914874005245896,0.0445076705966484,0.005));
#1430=CARTESIAN_POINT('',(0.0914874005245896,0.0445076705966484,0.02129149));
#1431=CARTESIAN_POINT('',(0.0914874005245896,0.0495076705966484,0.02129149));
#1432=CARTESIAN_POINT('',(0.0914874005245896,0.0495076705966484,0.005));
#1433=CARTESIAN_POINT('',(0.0964874005245896,0.0495076705966484,0.02129149));
#1434=CARTESIAN_POINT('',(0.0964874005245896,0.0495076705966484,0.01129149));
#1435=CARTESIAN_POINT('',(0.0991374005245896,0.0495076705966484,0.01129149));
#1436=CARTESIAN_POINT('',(8.71329675078414E-11,1.44228490261966E-10,0.01129149));
#1437=CARTESIAN_POINT('',(8.71329675078414E-11,1.44228490261966E-10,0.01129149));
#1438=CARTESIAN_POINT('',(-0.102487400350324,-0.0575076703081914,0.01));
#1439=CARTESIAN_POINT('',(0.10448740052459,-0.0555076703081914,0.02129149));
#1440=CARTESIAN_POINT('',(0.10248740052459,0.0575076705966484,0.01));
#1441=CARTESIAN_POINT('',(-0.104487400350324,0.0555076705966484,0.01));
#1442=CARTESIAN_POINT('',(8.71329675078414E-11,1.44228490261966E-10,0.005));
#1443=CARTESIAN_POINT('',(0.01473740025927,0.0493076705966484,0.005));
#1444=CARTESIAN_POINT('',(0.0827374005245896,0.0493076705966484,0.005));
#1445=CARTESIAN_POINT('',(0.0827374005245896,0.0493076705966484,0.005));
#1446=CARTESIAN_POINT('',(0.0827374005245896,0.0493076705966484,0.002));
#1447=CARTESIAN_POINT('',(0.0879374005245896,0.0493076705966484,0.002));
#1448=CARTESIAN_POINT('',(0.01473740025927,0.0493076705966484,0.005));
#1449=CARTESIAN_POINT('',(0.01473740025927,0.0493076705966484,0.002));
#1450=CARTESIAN_POINT('',(0.01993740025927,0.0493076705966484,0.002));
#1451=CARTESIAN_POINT('',(8.71329675078414E-11,1.44228490261966E-10,0.002));
#1452=CARTESIAN_POINT('',(8.71329675078414E-11,1.44228490261966E-10,0.002));
#1453=CARTESIAN_POINT('',(8.71329675078414E-11,1.44228490261966E-10,0.002));
#1454=CARTESIAN_POINT('',(8.71329675078414E-11,1.44228490261966E-10,0.002));
#1455=CARTESIAN_POINT('',(-0.101487400350324,0.0214451849460602,0.0110396649688482));
#1456=CARTESIAN_POINT('',(-0.100574655177545,0.0205324397732814,0.0092141746232907));
#1457=CARTESIAN_POINT('',(-0.0886833122973544,0.00864109689309082,0.000973812434215182));
#1458=CARTESIAN_POINT('',(-0.104487400350324,-0.0229670792128479,0.0167779004871845));
#1459=CARTESIAN_POINT('',(-0.102228100187929,0.00665999353428682,0.0145186003247897));
#1460=CARTESIAN_POINT('',(-0.101487400350324,0.0144229391589761,0.00830142945051193));
#1461=CARTESIAN_POINT('',(-0.102921210167161,0.00596688355505466,0.00686761963367462));
#1462=CARTESIAN_POINT('',(-0.104487400350324,0.00440069337189198,0.01));
#1463=MECHANICAL_DESIGN_GEOMETRIC_PRESENTATION_REPRESENTATION('',(#898),
#1464);
#1464=(
GEOMETRIC_REPRESENTATION_CONTEXT(3)
GLOBAL_UNCERTAINTY_ASSIGNED_CONTEXT((#1465))
GLOBAL_UNIT_ASSIGNED_CONTEXT((#1468,#1467,#1466))
REPRESENTATION_CONTEXT('Part 1','TOP_LEVEL_ASSEMBLY_PART')
);
#1465=UNCERTAINTY_MEASURE_WITH_UNIT(LENGTH_MEASURE(1.E-8),#1468,
'DISTANCE_ACCURACY_VALUE','Maximum Tolerance applied to model');
#1466=(
NAMED_UNIT(*)
SI_UNIT($,.STERADIAN.)
SOLID_ANGLE_UNIT()
);
#1467=(
NAMED_UNIT(*)
PLANE_ANGLE_UNIT()
SI_UNIT($,.RADIAN.)
);
#1468=(
LENGTH_UNIT()
NAMED_UNIT(*)
SI_UNIT($,.METRE.)
);
#1469=PRODUCT_DEFINITION_SHAPE('','',#1470);
#1470=PRODUCT_DEFINITION('','',#1472,#1471);
#1471=PRODUCT_DEFINITION_CONTEXT('',#1478,'design');
#1472=PRODUCT_DEFINITION_FORMATION_WITH_SPECIFIED_SOURCE('','',#1474,
 .NOT_KNOWN.);
#1473=PRODUCT_RELATED_PRODUCT_CATEGORY('','',(#1474));
#1474=PRODUCT('Part 1','Part 1','Part 1',(#1476));
#1475=PRODUCT_CATEGORY('','');
#1476=PRODUCT_CONTEXT('',#1478,'mechanical');
#1477=APPLICATION_PROTOCOL_DEFINITION('international standard',
'ap242_managed_model_based_3d_engineering',2020,#1478);
#1478=APPLICATION_CONTEXT('managed model based 3d engineering');
ENDSEC;
END-ISO-10303-21;
